<?xml version="1.0" standalone="no"?>
<!DOCTYPE svg PUBLIC "-//W3C//DTD SVG 20010904//EN"
 "http://www.w3.org/TR/2001/REC-SVG-20010904/DTD/svg10.dtd">
<svg version="1.0" xmlns="http://www.w3.org/2000/svg"
 width="534.000000pt" height="534.000000pt" viewBox="0 0 534.000000 534.000000"
 preserveAspectRatio="xMidYMid meet">
<metadata>
Created by potrace 1.14, written by Peter Selinger 2001-2017
</metadata>
<g transform="translate(0.000000,534.000000) scale(0.100000,-0.100000)"
fill="#000000" stroke="none">
<path d="M4466 5194 c-85 -286 -84 -282 -133 -328 -14 -14 -61 -39 -102 -57
-42 -18 -79 -35 -84 -39 -4 -3 28 -21 71 -39 140 -57 156 -79 221 -300 17 -58
33 -106 35 -108 4 -5 17 32 66 195 39 130 69 163 189 211 45 19 79 37 74 41
-4 5 -37 20 -73 35 -136 57 -153 80 -210 275 -36 124 -45 142 -54 114z"/>
<path d="M2627 5174 c-1 -1 -49 -4 -107 -8 -263 -14 -562 -100 -799 -228 -42
-23 -85 -46 -96 -52 -79 -43 -252 -175 -351 -269 -357 -336 -582 -797 -630
-1287 -13 -131 -8 -321 12 -480 13 -110 72 -341 108 -425 7 -16 19 -46 27 -65
81 -211 267 -490 435 -654 77 -76 140 -130 212 -185 45 -34 80 -67 77 -72 -18
-28 -133 -364 -180 -526 -13 -45 -27 -115 -31 -156 -5 -63 -3 -81 15 -123 40
-91 137 -173 297 -253 202 -100 485 -177 769 -207 33 -3 74 -8 90 -10 50 -6
336 -5 390 1 28 3 75 7 105 11 48 4 155 21 255 40 128 23 346 91 462 145 228
105 353 234 353 363 0 139 -58 371 -152 609 l-50 129 22 15 c120 84 317 274
413 398 190 246 346 585 393 855 2 14 7 36 9 50 19 99 31 246 29 365 -1 91
-13 265 -19 275 -1 3 -6 28 -9 55 -20 150 -91 366 -181 551 -56 113 -168 298
-207 338 -7 8 -31 37 -53 65 -63 80 -241 250 -345 327 -217 162 -449 275 -699
340 -101 26 -115 29 -206 44 -82 13 -349 31 -358 24z"/>
<path d="M4900 4551 c0 -8 -14 -58 -30 -112 -36 -115 -54 -137 -148 -180 l-67
-30 63 -27 c94 -41 117 -67 152 -181 16 -54 30 -103 30 -110 0 -6 3 -11 8 -11
4 0 23 50 42 111 39 126 65 157 159 194 47 18 66 35 40 35 -15 0 -128 57 -142
72 -22 24 -77 168 -77 203 0 17 -29 53 -30 36z"/>
<path d="M680 2107 c0 -18 -8 -44 -90 -304 -39 -124 -44 -134 -91 -178 -41
-38 -192 -122 -234 -129 -5 -1 -22 -9 -37 -17 l-28 -15 68 -28 c252 -106 265
-120 345 -376 30 -96 58 -190 62 -207 7 -33 25 -55 25 -31 0 29 120 399 141
435 33 59 98 103 227 158 l119 50 -56 25 c-198 85 -265 130 -300 199 -17 32
-99 292 -121 380 -10 39 -30 65 -30 38z"/>
</g>
</svg>
