<svg width="134" height="24" viewBox="0 0 134 24" fill="none" xmlns="http://www.w3.org/2000/svg">
<path d="M11.312 12.432C11.4507 12.432 11.5573 12.496 11.632 12.624C11.7173 12.752 11.76 12.928 11.76 13.152C11.76 13.5787 11.6587 13.9093 11.456 14.144C10.9973 14.7093 10.5013 15.1733 9.968 15.536C9.44533 15.8987 8.848 16.08 8.176 16.08C7.61067 16.08 7.152 15.8773 6.8 15.472C6.192 15.8667 5.55733 16.0693 4.896 16.08C4.75733 18.1387 4.44267 19.856 3.952 21.232C3.46133 22.6187 2.74133 23.312 1.792 23.312C1.216 23.312 0.789333 23.104 0.512 22.688C0.234667 22.272 0.096 21.696 0.096 20.96C0.096 19.9147 0.336 18.6933 0.816 17.296C1.296 15.9093 2.03733 14.3787 3.04 12.704C3.04 11.1467 3.02933 10.064 3.008 9.456C2.99733 9.14667 3.12 8.90133 3.376 8.72C3.632 8.53867 3.952 8.448 4.336 8.448C4.56 8.448 4.72 8.496 4.816 8.592C4.92267 8.67733 4.98133 8.85333 4.992 9.12C4.992 9.38667 4.99733 9.584 5.008 9.712C5.34933 9.28533 5.68533 8.98133 6.016 8.8C6.34667 8.608 6.69867 8.512 7.072 8.512C7.66933 8.512 8.15467 8.752 8.528 9.232C8.912 9.712 9.104 10.3413 9.104 11.12C9.104 11.6853 9.01333 12.2347 8.832 12.768C8.65067 13.3013 8.4 13.7867 8.08 14.224C8.304 14.288 8.49067 14.32 8.64 14.32C8.992 14.32 9.328 14.192 9.648 13.936C9.968 13.68 10.3787 13.2533 10.88 12.656C11.008 12.5067 11.152 12.432 11.312 12.432ZM4.976 14.544C5.36 14.4587 5.712 14.2507 6.032 13.92C6.36267 13.5787 6.624 13.1627 6.816 12.672C7.008 12.1707 7.104 11.648 7.104 11.104C7.104 10.784 7.04 10.544 6.912 10.384C6.784 10.2133 6.61333 10.128 6.4 10.128C6.016 10.128 5.552 10.5333 5.008 11.344C4.99733 11.8133 4.992 12.5013 4.992 13.408C4.992 13.8987 4.98667 14.2773 4.976 14.544ZM1.92 21.744C2.208 21.744 2.448 21.1147 2.64 19.856C2.832 18.608 2.95467 17.0507 3.008 15.184C2.54933 16.2507 2.18667 17.2693 1.92 18.24C1.65333 19.2107 1.52 20.0267 1.52 20.688C1.52 21.0293 1.56267 21.2907 1.648 21.472C1.72267 21.6533 1.81333 21.744 1.92 21.744ZM17.6071 12.432C17.7458 12.432 17.8525 12.496 17.9271 12.624C18.0125 12.752 18.0551 12.928 18.0551 13.152C18.0551 13.5787 17.9538 13.9093 17.7511 14.144C17.3565 14.624 16.7965 15.0667 16.0711 15.472C15.3565 15.8773 14.5885 16.08 13.7671 16.08C12.6471 16.08 11.7778 15.776 11.1591 15.168C10.5405 14.56 10.2311 13.728 10.2311 12.672C10.2311 11.936 10.3858 11.2533 10.6951 10.624C11.0045 9.984 11.4311 9.47733 11.9751 9.104C12.5298 8.73067 13.1538 8.544 13.8471 8.544C14.4658 8.544 14.9618 8.73067 15.3351 9.104C15.7085 9.46667 15.8951 9.96267 15.8951 10.592C15.8951 11.328 15.6285 11.9627 15.0951 12.496C14.5725 13.0187 13.6818 13.4347 12.4231 13.744C12.6898 14.2347 13.1965 14.48 13.9431 14.48C14.4231 14.48 14.9671 14.3147 15.5751 13.984C16.1938 13.6427 16.7271 13.2 17.1751 12.656C17.3031 12.5067 17.4471 12.432 17.6071 12.432ZM13.5751 10.112C13.1805 10.112 12.8445 10.3413 12.5671 10.8C12.3005 11.2587 12.1671 11.8133 12.1671 12.464V12.496C12.7965 12.3467 13.2925 12.1227 13.6551 11.824C14.0178 11.5253 14.1991 11.1787 14.1991 10.784C14.1991 10.5813 14.1405 10.4213 14.0231 10.304C13.9165 10.176 13.7671 10.112 13.5751 10.112ZM23.8884 12.432C24.027 12.432 24.1337 12.496 24.2084 12.624C24.2937 12.752 24.3364 12.928 24.3364 13.152C24.3364 13.5787 24.235 13.9093 24.0324 14.144C23.5737 14.7093 23.0724 15.1733 22.5284 15.536C21.9844 15.8987 21.3604 16.08 20.6564 16.08C18.4804 16.08 17.3924 14.5493 17.3924 11.488C17.3924 11.0187 17.4084 10.544 17.4404 10.064H16.8164C16.4964 10.064 16.2777 10.0053 16.1604 9.888C16.0537 9.77067 16.0004 9.584 16.0004 9.328C16.0004 8.73067 16.2404 8.432 16.7204 8.432H17.6324C17.8137 7.25867 18.091 6.18667 18.4644 5.216C18.8377 4.24533 19.2857 3.472 19.8084 2.896C20.3417 2.32 20.9124 2.032 21.5204 2.032C21.9684 2.032 22.3204 2.22933 22.5764 2.624C22.8324 3.01867 22.9604 3.51467 22.9604 4.112C22.9604 5.76533 22.267 7.20533 20.8804 8.432H22.6724C22.843 8.432 22.9657 8.46933 23.0404 8.544C23.115 8.61867 23.1524 8.75733 23.1524 8.96C23.1524 9.696 22.5497 10.064 21.3444 10.064H19.3924C19.371 10.5973 19.3604 11.0133 19.3604 11.312C19.3604 12.4213 19.4884 13.2 19.7444 13.648C20.011 14.096 20.427 14.32 20.9924 14.32C21.451 14.32 21.8564 14.1813 22.2084 13.904C22.5604 13.6267 22.9764 13.2107 23.4564 12.656C23.5844 12.5067 23.7284 12.432 23.8884 12.432ZM21.0884 3.568C20.9284 3.568 20.747 3.77067 20.5444 4.176C20.3524 4.57067 20.1657 5.12533 19.9844 5.84C19.8137 6.544 19.6697 7.328 19.5524 8.192C20.1817 7.648 20.651 7.04 20.9604 6.368C21.2804 5.68533 21.4404 5.06667 21.4404 4.512C21.4404 3.88267 21.323 3.568 21.0884 3.568ZM28.7616 12.912C28.9003 12.912 29.007 12.976 29.0816 13.104C29.167 13.232 29.2096 13.408 29.2096 13.632C29.2096 14.016 29.119 14.3467 28.9376 14.624C28.639 15.0827 28.2443 15.44 27.7536 15.696C27.2736 15.952 26.6976 16.08 26.0256 16.08C25.0016 16.08 24.207 15.776 23.6416 15.168C23.0763 14.5493 22.7936 13.7173 22.7936 12.672C22.7936 11.936 22.9483 11.2533 23.2576 10.624C23.567 9.984 23.9936 9.47733 24.5376 9.104C25.0923 8.73067 25.7163 8.544 26.4096 8.544C27.0283 8.544 27.5243 8.73067 27.8976 9.104C28.271 9.46667 28.4576 9.96267 28.4576 10.592C28.4576 11.328 28.191 11.9627 27.6576 12.496C27.135 13.0187 26.239 13.4347 24.9696 13.744C25.2256 14.2347 25.6576 14.48 26.2656 14.48C26.703 14.48 27.0603 14.3787 27.3376 14.176C27.6256 13.9733 27.9563 13.632 28.3296 13.152C28.4576 12.992 28.6016 12.912 28.7616 12.912ZM26.1376 10.112C25.743 10.112 25.407 10.3413 25.1296 10.8C24.863 11.2587 24.7296 11.8133 24.7296 12.464V12.496C25.359 12.3467 25.855 12.1227 26.2176 11.824C26.5803 11.5253 26.7616 11.1787 26.7616 10.784C26.7616 10.5813 26.703 10.4213 26.5856 10.304C26.479 10.176 26.3296 10.112 26.1376 10.112ZM34.9821 16.08C34.5768 16.08 34.2888 15.8667 34.1181 15.44C33.9581 15.0133 33.8781 14.3307 33.8781 13.392C33.8781 12.0053 34.0755 10.688 34.4701 9.44C34.5661 9.13067 34.7208 8.90667 34.9341 8.768C35.1581 8.61867 35.4675 8.544 35.8621 8.544C36.0755 8.544 36.2248 8.57067 36.3101 8.624C36.3955 8.67733 36.4381 8.77867 36.4381 8.928C36.4381 9.09867 36.3581 9.48267 36.1981 10.08C36.0915 10.5067 36.0061 10.88 35.9421 11.2C35.8781 11.5093 35.8248 11.8987 35.7821 12.368C36.0701 11.536 36.4115 10.832 36.8061 10.256C37.2115 9.68 37.6221 9.25333 38.0381 8.976C38.4648 8.688 38.8648 8.544 39.2381 8.544C39.6115 8.544 39.8728 8.62933 40.0221 8.8C40.1821 8.97067 40.2621 9.232 40.2621 9.584C40.2621 9.92533 40.1608 10.544 39.9581 11.44C39.8728 11.824 39.8141 12.112 39.7821 12.304C40.3155 10.992 40.9075 10.0373 41.5581 9.44C42.2088 8.84267 42.8168 8.544 43.3821 8.544C44.0755 8.544 44.4221 8.89067 44.4221 9.584C44.4221 10 44.3048 10.752 44.0701 11.84C43.8675 12.768 43.7661 13.3813 43.7661 13.68C43.7661 14.1067 43.9208 14.32 44.2301 14.32C44.4435 14.32 44.6941 14.192 44.9821 13.936C45.2808 13.6693 45.6755 13.2427 46.1661 12.656C46.2941 12.5067 46.4381 12.432 46.5981 12.432C46.7368 12.432 46.8435 12.496 46.9181 12.624C47.0035 12.752 47.0461 12.928 47.0461 13.152C47.0461 13.5787 46.9448 13.9093 46.7421 14.144C46.2835 14.7093 45.7875 15.1733 45.2541 15.536C44.7315 15.8987 44.1341 16.08 43.4621 16.08C42.9181 16.08 42.5075 15.9253 42.2301 15.616C41.9528 15.296 41.8141 14.8373 41.8141 14.24C41.8141 13.9413 41.8888 13.408 42.0381 12.64C42.1768 11.968 42.2461 11.504 42.2461 11.248C42.2461 11.0773 42.1875 10.992 42.0701 10.992C41.9315 10.992 41.7341 11.1733 41.4781 11.536C41.2221 11.888 40.9661 12.3573 40.7101 12.944C40.4541 13.5307 40.2461 14.1493 40.0861 14.8C39.9688 15.312 39.8301 15.6533 39.6701 15.824C39.5208 15.9947 39.2755 16.08 38.9341 16.08C38.5821 16.08 38.3155 15.9147 38.1341 15.584C37.9635 15.2427 37.8781 14.832 37.8781 14.352C37.8781 13.9467 37.9315 13.36 38.0381 12.592C38.1235 11.9093 38.1661 11.4613 38.1661 11.248C38.1661 11.0773 38.1075 10.992 37.9901 10.992C37.8301 10.992 37.6275 11.184 37.3821 11.568C37.1368 11.952 36.8968 12.4427 36.6621 13.04C36.4381 13.6373 36.2568 14.224 36.1181 14.8C36.0008 15.3013 35.8621 15.6427 35.7021 15.824C35.5528 15.9947 35.3128 16.08 34.9821 16.08ZM47.8484 7.488C47.4004 7.488 47.0644 7.38667 46.8404 7.184C46.6164 6.97067 46.5044 6.67733 46.5044 6.304C46.5044 5.93067 46.6484 5.62133 46.9364 5.376C47.235 5.12 47.603 4.992 48.0404 4.992C48.435 4.992 48.755 5.088 49.0004 5.28C49.2457 5.472 49.3684 5.744 49.3684 6.096C49.3684 6.52267 49.2297 6.864 48.9524 7.12C48.675 7.36533 48.307 7.488 47.8484 7.488ZM47.7204 16.08C47.027 16.08 46.5204 15.8347 46.2004 15.344C45.891 14.8533 45.7364 14.2027 45.7364 13.392C45.7364 12.912 45.795 12.2987 45.9124 11.552C46.0404 10.7947 46.2004 10.0907 46.3924 9.44C46.4884 9.09867 46.6164 8.864 46.7764 8.736C46.9364 8.608 47.1924 8.544 47.5444 8.544C48.0884 8.544 48.3604 8.72533 48.3604 9.088C48.3604 9.35467 48.259 9.97333 48.0564 10.944C47.8004 12.1173 47.6724 12.912 47.6724 13.328C47.6724 13.648 47.715 13.8933 47.8004 14.064C47.8857 14.2347 48.0297 14.32 48.2324 14.32C48.4244 14.32 48.6644 14.1867 48.9524 13.92C49.2404 13.6533 49.6244 13.232 50.1044 12.656C50.2324 12.5067 50.3764 12.432 50.5364 12.432C50.675 12.432 50.7817 12.496 50.8564 12.624C50.9417 12.752 50.9844 12.928 50.9844 13.152C50.9844 13.5787 50.883 13.9093 50.6804 14.144C49.6244 15.4347 48.6377 16.08 47.7204 16.08ZM55.7539 12.432C55.8925 12.432 55.9992 12.496 56.0739 12.624C56.1592 12.752 56.2019 12.928 56.2019 13.152C56.2019 13.5787 56.1005 13.9093 55.8979 14.144C55.4392 14.7093 54.9379 15.1733 54.3939 15.536C53.8605 15.8987 53.2525 16.08 52.5699 16.08C51.6312 16.08 50.9325 15.6533 50.4739 14.8C50.0259 13.9467 49.8019 12.8427 49.8019 11.488C49.8019 10.1867 49.9672 8.704 50.2979 7.04C50.6392 5.376 51.1352 3.94667 51.7859 2.752C52.4472 1.55733 53.2312 0.959999 54.1379 0.959999C54.6499 0.959999 55.0499 1.2 55.3379 1.68C55.6365 2.14933 55.7859 2.82667 55.7859 3.712C55.7859 4.98133 55.4339 6.45333 54.7299 8.128C54.0259 9.80267 53.0712 11.4613 51.8659 13.104C51.9405 13.5413 52.0632 13.856 52.2339 14.048C52.4045 14.2293 52.6285 14.32 52.9059 14.32C53.3432 14.32 53.7272 14.1973 54.0579 13.952C54.3885 13.696 54.8099 13.264 55.3219 12.656C55.4499 12.5067 55.5939 12.432 55.7539 12.432ZM53.7859 2.544C53.5405 2.544 53.2632 2.98667 52.9539 3.872C52.6445 4.75733 52.3725 5.856 52.1379 7.168C51.9032 8.48 51.7752 9.73867 51.7539 10.944C52.5112 9.696 53.1139 8.448 53.5619 7.2C54.0099 5.94133 54.2339 4.79467 54.2339 3.76C54.2339 2.94933 54.0845 2.544 53.7859 2.544ZM60.9726 12.432C61.1113 12.432 61.218 12.496 61.2926 12.624C61.378 12.752 61.4206 12.928 61.4206 13.152C61.4206 13.5787 61.3193 13.9093 61.1166 14.144C60.658 14.7093 60.1566 15.1733 59.6126 15.536C59.0793 15.8987 58.4713 16.08 57.7886 16.08C56.85 16.08 56.1513 15.6533 55.6926 14.8C55.2446 13.9467 55.0206 12.8427 55.0206 11.488C55.0206 10.1867 55.186 8.704 55.5166 7.04C55.858 5.376 56.354 3.94667 57.0046 2.752C57.666 1.55733 58.45 0.959999 59.3566 0.959999C59.8686 0.959999 60.2686 1.2 60.5566 1.68C60.8553 2.14933 61.0046 2.82667 61.0046 3.712C61.0046 4.98133 60.6526 6.45333 59.9486 8.128C59.2446 9.80267 58.29 11.4613 57.0846 13.104C57.1593 13.5413 57.282 13.856 57.4526 14.048C57.6233 14.2293 57.8473 14.32 58.1246 14.32C58.562 14.32 58.946 14.1973 59.2766 13.952C59.6073 13.696 60.0286 13.264 60.5406 12.656C60.6686 12.5067 60.8126 12.432 60.9726 12.432ZM59.0046 2.544C58.7593 2.544 58.482 2.98667 58.1726 3.872C57.8633 4.75733 57.5913 5.856 57.3566 7.168C57.122 8.48 56.994 9.73867 56.9726 10.944C57.73 9.696 58.3326 8.448 58.7806 7.2C59.2286 5.94133 59.4526 4.79467 59.4526 3.76C59.4526 2.94933 59.3033 2.544 59.0046 2.544ZM65.7274 8.544C65.9727 8.544 66.1434 8.576 66.2394 8.64C66.3354 8.704 66.3834 8.81067 66.3834 8.96C66.3834 9.216 66.2447 10.128 65.9674 11.696C65.722 13.2 65.578 14.0907 65.5354 14.368C65.1407 17.1093 64.5967 19.28 63.9034 20.88C63.21 22.48 62.2874 23.28 61.1354 23.28C60.5914 23.28 60.1487 23.1093 59.8074 22.768C59.466 22.4373 59.2954 22 59.2954 21.456C59.2954 20.9547 59.4074 20.4427 59.6314 19.92C59.866 19.3973 60.2927 18.7947 60.9114 18.112C61.5407 17.44 62.426 16.6667 63.5674 15.792L63.6154 15.424C63.69 15.0293 63.7754 14.464 63.8714 13.728C63.658 14.496 63.3594 15.0827 62.9754 15.488C62.5914 15.8827 62.186 16.08 61.7594 16.08C61.2794 16.08 60.8847 15.8613 60.5754 15.424C60.2767 14.976 60.1274 14.4213 60.1274 13.76C60.1274 12.96 60.1807 12.2293 60.2874 11.568C60.394 10.896 60.57 10.1867 60.8154 9.44C60.922 9.12 61.0714 8.89067 61.2634 8.752C61.4554 8.61333 61.7594 8.544 62.1754 8.544C62.41 8.544 62.57 8.58133 62.6554 8.656C62.7514 8.73067 62.7994 8.84267 62.7994 8.992C62.7994 9.07733 62.7407 9.36533 62.6234 9.856C62.5167 10.2507 62.4314 10.608 62.3674 10.928C62.282 11.3653 62.2074 11.7867 62.1434 12.192C62.0794 12.5867 62.0474 12.912 62.0474 13.168C62.0474 13.5733 62.1594 13.776 62.3834 13.776C62.5434 13.776 62.7407 13.616 62.9754 13.296C63.2207 12.976 63.4767 12.4907 63.7434 11.84C64.0207 11.1893 64.2874 10.3893 64.5434 9.44C64.6287 9.12 64.7567 8.89067 64.9274 8.752C65.1087 8.61333 65.3754 8.544 65.7274 8.544ZM61.3114 21.728C61.578 21.728 61.8767 21.4187 62.2074 20.8C62.538 20.1813 62.8687 19.152 63.1994 17.712C62.378 18.4053 61.7807 19.0347 61.4074 19.6C61.0447 20.176 60.8634 20.6773 60.8634 21.104C60.8634 21.2853 60.8954 21.4347 60.9594 21.552C61.034 21.6693 61.1514 21.728 61.3114 21.728ZM72.6533 16.08C72.1839 16.08 71.8266 15.952 71.5813 15.696C71.3466 15.44 71.2293 15.104 71.2293 14.688C71.2293 14.208 71.3626 13.824 71.6293 13.536C71.9066 13.248 72.2906 13.104 72.7812 13.104C73.2506 13.104 73.6026 13.2213 73.8373 13.456C74.0826 13.68 74.2053 14.016 74.2053 14.464C74.2053 14.9547 74.0666 15.3493 73.7893 15.648C73.5119 15.936 73.1333 16.08 72.6533 16.08ZM86.277 11.52C86.5757 11.52 86.725 11.744 86.725 12.192C86.725 13.0347 86.0637 13.456 84.741 13.456C84.485 13.456 84.117 13.408 83.637 13.312C83.7757 13.9733 83.8877 14.7093 83.973 15.52C84.069 16.32 84.117 16.9813 84.117 17.504C84.117 18.656 83.9303 19.536 83.557 20.144C83.1837 20.752 82.693 21.056 82.085 21.056C81.317 21.056 80.7677 20.512 80.437 19.424C80.117 18.336 79.957 16.6933 79.957 14.496C79.957 12.448 80.1757 10.3733 80.613 8.272C81.061 6.16 81.669 4.416 82.437 3.04C83.2157 1.65333 84.069 0.959999 84.997 0.959999C85.4983 0.959999 85.8877 1.184 86.165 1.632C86.453 2.08 86.597 2.68267 86.597 3.44C86.597 5.94667 85.0983 8.67733 82.101 11.632C81.9943 12.6773 81.941 13.5947 81.941 14.384C81.941 15.4827 81.9783 16.608 82.053 17.76C82.1277 18.9227 82.2503 19.504 82.421 19.504C82.741 19.504 82.901 18.9493 82.901 17.84C82.901 17.008 82.8423 16.2027 82.725 15.424C82.6183 14.6453 82.469 13.824 82.277 12.96C82.2663 12.8213 82.309 12.6453 82.405 12.432C82.5117 12.2187 82.6397 12.032 82.789 11.872C82.9383 11.712 83.0717 11.632 83.189 11.632C83.4023 11.632 83.6583 11.6427 83.957 11.664C84.053 11.6747 84.165 11.68 84.293 11.68C84.7197 11.68 85.1943 11.6427 85.717 11.568C85.8023 11.5573 85.893 11.5467 85.989 11.536C86.085 11.5253 86.181 11.52 86.277 11.52ZM84.661 2.544C84.469 2.544 84.229 2.86933 83.941 3.52C83.6637 4.17067 83.3863 5.03467 83.109 6.112C82.8317 7.17867 82.5917 8.30933 82.389 9.504C83.2423 8.53333 83.8983 7.52533 84.357 6.48C84.8157 5.424 85.0503 4.43733 85.061 3.52C85.061 2.86933 84.9277 2.544 84.661 2.544ZM93.678 11.088C93.8167 11.088 93.9233 11.1573 93.998 11.296C94.0727 11.4347 94.11 11.6107 94.11 11.824C94.11 12.336 93.9553 12.64 93.646 12.736C93.006 12.96 92.302 13.088 91.534 13.12C91.3313 14.016 90.9313 14.736 90.334 15.28C89.7367 15.8133 89.0593 16.08 88.302 16.08C87.662 16.08 87.1127 15.9253 86.654 15.616C86.206 15.3067 85.8647 14.896 85.63 14.384C85.3953 13.872 85.278 13.3173 85.278 12.72C85.278 11.9093 85.4327 11.1893 85.742 10.56C86.0513 9.92 86.478 9.424 87.022 9.072C87.566 8.70933 88.1687 8.528 88.83 8.528C89.6407 8.528 90.2913 8.81067 90.782 9.376C91.2833 9.93067 91.5767 10.6187 91.662 11.44C92.1633 11.408 92.7607 11.3013 93.454 11.12C93.5393 11.0987 93.614 11.088 93.678 11.088ZM88.43 14.384C88.7713 14.384 89.0647 14.2453 89.31 13.968C89.566 13.6907 89.7367 13.2907 89.822 12.768C89.4913 12.544 89.2353 12.2507 89.054 11.888C88.8833 11.5253 88.798 11.1413 88.798 10.736C88.798 10.5653 88.814 10.3947 88.846 10.224H88.766C88.3393 10.224 87.982 10.432 87.694 10.848C87.4167 11.2533 87.278 11.8293 87.278 12.576C87.278 13.1627 87.39 13.6107 87.614 13.92C87.8487 14.2293 88.1207 14.384 88.43 14.384ZM100.897 11.088C101.035 11.088 101.142 11.1573 101.217 11.296C101.291 11.4347 101.329 11.6107 101.329 11.824C101.329 12.336 101.174 12.64 100.865 12.736C100.225 12.96 99.5208 13.088 98.7528 13.12C98.5501 14.016 98.1501 14.736 97.5528 15.28C96.9554 15.8133 96.2781 16.08 95.5208 16.08C94.8808 16.08 94.3314 15.9253 93.8728 15.616C93.4248 15.3067 93.0834 14.896 92.8488 14.384C92.6141 13.872 92.4967 13.3173 92.4967 12.72C92.4967 11.9093 92.6514 11.1893 92.9608 10.56C93.2701 9.92 93.6968 9.424 94.2408 9.072C94.7848 8.70933 95.3874 8.528 96.0488 8.528C96.8594 8.528 97.5101 8.81067 98.0008 9.376C98.5021 9.93067 98.7954 10.6187 98.8808 11.44C99.3821 11.408 99.9794 11.3013 100.673 11.12C100.758 11.0987 100.833 11.088 100.897 11.088ZM95.6488 14.384C95.9901 14.384 96.2834 14.2453 96.5288 13.968C96.7848 13.6907 96.9554 13.2907 97.0408 12.768C96.7101 12.544 96.4541 12.2507 96.2728 11.888C96.1021 11.5253 96.0168 11.1413 96.0168 10.736C96.0168 10.5653 96.0328 10.3947 96.0648 10.224H95.9848C95.5581 10.224 95.2008 10.432 94.9128 10.848C94.6354 11.2533 94.4968 11.8293 94.4968 12.576C94.4968 13.1627 94.6088 13.6107 94.8328 13.92C95.0674 14.2293 95.3394 14.384 95.6488 14.384ZM107.498 12.432C107.636 12.432 107.743 12.496 107.818 12.624C107.903 12.752 107.946 12.928 107.946 13.152C107.946 13.5787 107.844 13.9093 107.642 14.144C107.183 14.7093 106.682 15.1733 106.138 15.536C105.594 15.8987 104.97 16.08 104.266 16.08C102.09 16.08 101.002 14.5493 101.002 11.488C101.002 11.0187 101.018 10.544 101.05 10.064H100.426C100.106 10.064 99.8871 10.0053 99.7698 9.888C99.6631 9.77067 99.6098 9.584 99.6098 9.328C99.6098 8.73067 99.8498 8.432 100.33 8.432H101.242C101.423 7.25867 101.7 6.18667 102.074 5.216C102.447 4.24533 102.895 3.472 103.418 2.896C103.951 2.32 104.522 2.032 105.13 2.032C105.578 2.032 105.93 2.22933 106.186 2.624C106.442 3.01867 106.57 3.51467 106.57 4.112C106.57 5.76533 105.876 7.20533 104.49 8.432H106.282C106.452 8.432 106.575 8.46933 106.65 8.544C106.724 8.61867 106.762 8.75733 106.762 8.96C106.762 9.696 106.159 10.064 104.954 10.064H103.002C102.98 10.5973 102.97 11.0133 102.97 11.312C102.97 12.4213 103.098 13.2 103.354 13.648C103.62 14.096 104.036 14.32 104.602 14.32C105.06 14.32 105.466 14.1813 105.818 13.904C106.17 13.6267 106.586 13.2107 107.066 12.656C107.194 12.5067 107.338 12.432 107.498 12.432ZM104.698 3.568C104.538 3.568 104.356 3.77067 104.154 4.176C103.962 4.57067 103.775 5.12533 103.594 5.84C103.423 6.544 103.279 7.328 103.162 8.192C103.791 7.648 104.26 7.04 104.57 6.368C104.89 5.68533 105.05 5.06667 105.05 4.512C105.05 3.88267 104.932 3.568 104.698 3.568ZM115.155 11.088C115.294 11.088 115.4 11.1573 115.475 11.296C115.55 11.4347 115.587 11.6107 115.587 11.824C115.587 12.0907 115.55 12.2987 115.475 12.448C115.4 12.5867 115.283 12.6827 115.123 12.736C114.483 12.96 113.779 13.088 113.011 13.12C112.798 14.0053 112.392 14.72 111.795 15.264C111.208 15.808 110.558 16.08 109.843 16.08C108.766 16.08 107.982 15.6693 107.491 14.848C107 14.0267 106.755 12.8373 106.755 11.28C106.755 9.904 106.926 8.41067 107.267 6.8C107.608 5.17867 108.104 3.80267 108.755 2.672C109.416 1.53067 110.2 0.959999 111.107 0.959999C111.598 0.959999 111.992 1.17333 112.291 1.6C112.59 2.016 112.739 2.56 112.739 3.232C112.739 4.10667 112.574 4.976 112.243 5.84C111.912 6.704 111.363 7.61067 110.595 8.56C111.31 8.61333 111.891 8.912 112.339 9.456C112.787 9.98933 113.054 10.6507 113.139 11.44C113.64 11.408 114.238 11.3013 114.931 11.12C114.995 11.0987 115.07 11.088 115.155 11.088ZM110.739 2.544C110.526 2.544 110.291 2.864 110.035 3.504C109.79 4.13333 109.56 4.992 109.347 6.08C109.134 7.168 108.974 8.35733 108.867 9.648C109.571 8.35733 110.131 7.22133 110.547 6.24C110.974 5.248 111.187 4.368 111.187 3.6C111.187 3.25867 111.144 2.99733 111.059 2.816C110.984 2.63467 110.878 2.544 110.739 2.544ZM109.907 14.384C110.238 14.384 110.531 14.2453 110.787 13.968C111.043 13.6907 111.214 13.2907 111.299 12.768C110.968 12.544 110.712 12.2507 110.531 11.888C110.36 11.5253 110.275 11.1413 110.275 10.736C110.275 10.5867 110.296 10.384 110.339 10.128H110.291C109.854 10.128 109.486 10.3467 109.187 10.784C108.899 11.2107 108.755 11.7867 108.755 12.512C108.755 13.12 108.867 13.584 109.091 13.904C109.326 14.224 109.598 14.384 109.907 14.384ZM116.174 16.08C115.512 16.08 114.984 15.84 114.59 15.36C114.195 14.88 113.998 14.2507 113.998 13.472C113.998 12.6187 114.195 11.8133 114.59 11.056C114.984 10.288 115.507 9.67467 116.158 9.216C116.819 8.74667 117.518 8.512 118.254 8.512C118.488 8.512 118.643 8.56 118.718 8.656C118.803 8.74133 118.872 8.90133 118.926 9.136C119.15 9.09333 119.384 9.072 119.63 9.072C120.152 9.072 120.414 9.25867 120.414 9.632C120.414 9.856 120.334 10.3893 120.174 11.232C119.928 12.4587 119.806 13.312 119.806 13.792C119.806 13.952 119.843 14.08 119.918 14.176C120.003 14.272 120.11 14.32 120.238 14.32C120.44 14.32 120.686 14.192 120.974 13.936C121.262 13.6693 121.651 13.2427 122.142 12.656C122.27 12.5067 122.414 12.432 122.574 12.432C122.712 12.432 122.819 12.496 122.894 12.624C122.979 12.752 123.022 12.928 123.022 13.152C123.022 13.5787 122.92 13.9093 122.718 14.144C122.28 14.688 121.816 15.1467 121.326 15.52C120.835 15.8933 120.36 16.08 119.902 16.08C119.55 16.08 119.224 15.9627 118.926 15.728C118.638 15.4827 118.419 15.152 118.27 14.736C117.715 15.632 117.016 16.08 116.174 16.08ZM116.75 14.464C116.984 14.464 117.208 14.3253 117.422 14.048C117.635 13.7707 117.79 13.4027 117.886 12.944L118.478 10C118.03 10.0107 117.614 10.1813 117.23 10.512C116.856 10.832 116.558 11.2587 116.334 11.792C116.11 12.3253 115.998 12.8907 115.998 13.488C115.998 13.8187 116.062 14.064 116.19 14.224C116.328 14.384 116.515 14.464 116.75 14.464ZM127.785 12.432C127.924 12.432 128.03 12.496 128.105 12.624C128.19 12.752 128.233 12.928 128.233 13.152C128.233 13.5787 128.132 13.9093 127.929 14.144C127.47 14.7093 126.969 15.1733 126.425 15.536C125.892 15.8987 125.284 16.08 124.601 16.08C123.662 16.08 122.964 15.6533 122.505 14.8C122.057 13.9467 121.833 12.8427 121.833 11.488C121.833 10.1867 121.998 8.704 122.329 7.04C122.67 5.376 123.166 3.94667 123.817 2.752C124.478 1.55733 125.262 0.959999 126.169 0.959999C126.681 0.959999 127.081 1.2 127.369 1.68C127.668 2.14933 127.817 2.82667 127.817 3.712C127.817 4.98133 127.465 6.45333 126.761 8.128C126.057 9.80267 125.102 11.4613 123.897 13.104C123.972 13.5413 124.094 13.856 124.265 14.048C124.436 14.2293 124.66 14.32 124.937 14.32C125.374 14.32 125.758 14.1973 126.089 13.952C126.42 13.696 126.841 13.264 127.353 12.656C127.481 12.5067 127.625 12.432 127.785 12.432ZM125.817 2.544C125.572 2.544 125.294 2.98667 124.985 3.872C124.676 4.75733 124.404 5.856 124.169 7.168C123.934 8.48 123.806 9.73867 123.785 10.944C124.542 9.696 125.145 8.448 125.593 7.2C126.041 5.94133 126.265 4.79467 126.265 3.76C126.265 2.94933 126.116 2.544 125.817 2.544ZM131.564 13.744C131.681 13.6373 131.799 13.584 131.916 13.584C132.044 13.584 132.145 13.6587 132.22 13.808C132.305 13.9467 132.348 14.1173 132.348 14.32C132.348 14.768 132.188 15.1253 131.868 15.392C131.313 15.8507 130.684 16.08 129.98 16.08C128.967 16.08 128.225 15.6587 127.756 14.816C127.287 13.9627 127.052 12.8533 127.052 11.488C127.052 10.1867 127.217 8.704 127.548 7.04C127.889 5.376 128.385 3.94667 129.036 2.752C129.697 1.55733 130.481 0.959999 131.388 0.959999C131.9 0.959999 132.3 1.2 132.588 1.68C132.887 2.14933 133.036 2.82667 133.036 3.712C133.036 4.98133 132.684 6.45333 131.98 8.128C131.287 9.80267 130.337 11.456 129.132 13.088C129.207 13.5253 129.34 13.84 129.532 14.032C129.724 14.224 129.985 14.32 130.316 14.32C130.497 14.32 130.7 14.2667 130.924 14.16C131.159 14.0533 131.372 13.9147 131.564 13.744ZM131.036 2.544C130.791 2.544 130.513 2.98667 130.204 3.872C129.895 4.75733 129.623 5.856 129.388 7.168C129.153 8.48 129.025 9.73867 129.004 10.944C129.761 9.696 130.364 8.448 130.812 7.2C131.26 5.94133 131.484 4.79467 131.484 3.76C131.484 2.94933 131.335 2.544 131.036 2.544Z" fill="#241773"/>
</svg>
